<?xml version="1.0" standalone="no"?>
<!DOCTYPE svg PUBLIC "-//W3C//DTD SVG 1.0//EN" "http://www.w3.org/TR/2001/REC-SVG-20010904/DTD/svg10.dtd">
<svg xmlns="http://www.w3.org/2000/svg" xmlns:xlink="http://www.w3.org/1999/xlink" id="body_1" width="310" height="310">

<g transform="matrix(0.31 0 0 0.31 0 0)">
	<g transform="matrix(1 0 0 1 0 0)">
		<g transform="matrix(2.9940119 0 0 2.9940119 -0.42579508 -0.42579508)">
			<g transform="matrix(1 0 0 1 0.0475 0.0475)">
				<g>
				</g>
				<g transform="matrix(1 0 0 1 0 0)">
					<g>
                        <path d="M0 166.952C 0 74.746994 74.747 0 166.952 0C 259.15698 0 333.904 74.747 333.905 166.952C 333.905 259.15698 259.158 333.904 166.952 333.905C 74.746994 333.905 0 259.158 0 166.952zM166.952 316.63C 249.617 316.63 316.629 249.617 316.63 166.95201C 316.63 84.28701 249.617 17.27501 166.95201 17.27501C 84.28701 17.27501 17.27501 84.28801 17.27501 166.95201C 17.27501 249.617 84.28801 316.62903 166.95201 316.63z" stroke="#FFFFFF" stroke-width="1" fill="#000000" fill-rule="nonzero" stroke-opacity="0" />
                        <path d="M6.6780853 166.95227C 6.6780853 78.43528 78.43528 6.6780853 166.95227 6.6780853C 255.46927 6.6780853 327.22644 78.43528 327.22644 166.95227C 327.22644 255.46927 255.46927 327.22644 166.95227 327.22644C 78.43528 327.22644 6.6780853 255.46927 6.6780853 166.95227" stroke="none" fill="#000000" fill-rule="nonzero" />
					</g>
					<g transform="matrix(1 0 0 1 85.80599 71.17305)">
						<g transform="matrix(1 0 0 1 0 0)">
							<g transform="matrix(1 0 0 1 0 0)">
								<g transform="matrix(1 0 0 1 0 0)">
									<g transform="matrix(1 0 0 1 0 0)">
										<g transform="matrix(1 0 0 1 0 0)">
											<g transform="matrix(4.434223 0 0 4.434223 -0 159.63203)">
                                                <path transform="matrix(1 0 0 1 0 0)"  d="M15.85 6.7C 12.816668 6.7 10.326668 6.36 8.38 5.68C 6.4266667 4.9933333 4.8933334 4.0833335 3.78 2.95C 2.6599998 1.8166667 1.8933333 0.5166667 1.48 -0.95C 1.0600001 -2.4166667 0.8500001 -3.9333334 0.85 -5.5L0.85 -5.5L0.85 -12.1C 0.8500001 -12.533334 0.9100001 -12.91 1.03 -13.23C 1.1433334 -13.543333 1.3000001 -13.783333 1.5 -13.95L1.5 -13.95L8 -19.4C 8.166667 -19.533335 8.383333 -19.643333 8.65 -19.73C 8.916667 -19.810001 9.233334 -19.85 9.6 -19.85L9.6 -19.85L16.85 -19.85C 17.216667 -19.85 17.54 -19.810001 17.82 -19.73C 18.106667 -19.643333 18.35 -19.516668 18.55 -19.35L18.55 -19.35L18.55 -28.75C 18.55 -29.183334 18.61 -29.550001 18.73 -29.85C 18.843334 -30.150002 19.016666 -30.400002 19.25 -30.6L19.25 -30.6L25.7 -36.05C 25.866669 -36.183334 26.093334 -36.293335 26.38 -36.38C 26.66 -36.46 26.966667 -36.5 27.3 -36.5L27.3 -36.5L35.15 -36.5C 35.95 -36.5 36.533333 -36.316666 36.9 -35.95C 37.26667 -35.583336 37.45 -35.000004 37.45 -34.2L37.45 -34.2L37.45 -9.45C 37.45 -7.8833337 37.223335 -6.4433336 36.77 -5.13C 36.323334 -3.8100002 35.533333 -2.6833334 34.4 -1.75L34.4 -1.75L27.95 3.7C 26.816668 4.633333 25.283333 5.366667 23.35 5.9C 21.416668 6.4333334 18.916668 6.7 15.85 6.7zM36.95 -9.45L36.95 -34.2C 36.950005 -34.833336 36.80667 -35.293335 36.52 -35.58C 36.239998 -35.86 35.783333 -36 35.15 -36L35.15 -36L27.3 -36C 26.666668 -36 26.210001 -35.86 25.93 -35.58C 25.643333 -35.293335 25.5 -34.833336 25.5 -34.2L25.5 -34.2L25.5 -11.45C 25.5 -10.783333 25.310001 -10.226666 24.93 -9.78C 24.543335 -9.326667 23.633335 -9.1 22.2 -9.1C 20.666668 -9.1 19.693333 -9.326667 19.28 -9.78C 18.86 -10.226666 18.65 -10.783333 18.65 -11.45L18.65 -11.45L18.65 -17.55C 18.65 -18.183334 18.51 -18.643333 18.23 -18.93C 17.943333 -19.210001 17.483334 -19.35 16.85 -19.35L16.85 -19.35L9.6 -19.35C 8.966667 -19.35 8.506666 -19.210001 8.22 -18.93C 7.9400005 -18.643333 7.8 -18.183334 7.8 -17.55L7.8 -17.55L7.8 -9.45C 7.8 -7.916667 8.01 -6.526667 8.43 -5.28C 8.843334 -4.026667 9.593334 -2.9600003 10.68 -2.08C 11.760001 -1.1933334 13.243334 -0.5 15.13 0C 17.01 0.5 19.400002 0.75 22.3 0.75C 25.233334 0.75 27.650002 0.5 29.55 0C 31.450003 -0.5 32.940002 -1.1933334 34.02 -2.08C 35.106667 -2.9600003 35.86667 -4.026667 36.3 -5.28C 36.733337 -6.526667 36.950005 -7.916667 36.95 -9.45zM30.95 -10.65L30.95 -31.5L31.45 -31.5L31.45 -10.65C 31.45 -8.683333 30.826668 -7.0666666 29.58 -5.8C 28.326668 -4.533334 25.933334 -3.9 22.4 -3.9C 20.533335 -3.9 18.993336 -4.0666666 17.78 -4.4C 16.560001 -4.7333336 15.6 -5.1933336 14.9 -5.78C 14.200001 -6.36 13.710001 -7.0666666 13.43 -7.9C 13.143333 -8.733334 13 -9.65 13 -10.65L13 -10.65L13 -14.6L13.5 -14.6L13.5 -10.65C 13.5 -8.75 14.126667 -7.2333336 15.38 -6.1C 16.626667 -4.9666667 18.966667 -4.4 22.4 -4.4C 25.7 -4.4 27.95 -4.976667 29.15 -6.13C 30.350002 -7.276667 30.950003 -8.783334 30.95 -10.65z" stroke="none" fill="#00EBFF" fill-rule="nonzero" />
											</g>
										</g>
									</g>
								</g>
								<g>
								</g>
							</g>
						</g>
					</g>
				</g>
			</g>
		</g>
	</g>
</g>
</svg>